<svg width="17" height="16" viewBox="0 0 17 16" fill="none" xmlns="http://www.w3.org/2000/svg">
<g clip-path="url(#clip0_252_4129)">
<path d="M4.21132 12.2469C4.30647 12.3391 4.43434 12.3898 4.56684 12.3878C4.69933 12.3858 4.82562 12.3313 4.91797 12.2363L11.8426 5.31162L11.8426 10.7042C11.8413 10.7707 11.8532 10.8368 11.8777 10.8987C11.9023 10.9605 11.9389 11.0169 11.9854 11.0644C12.032 11.1119 12.0876 11.1496 12.1489 11.1754C12.2102 11.2012 12.2761 11.2144 12.3426 11.2144C12.4091 11.2144 12.475 11.2012 12.5363 11.1754C12.5976 11.1496 12.6532 11.1119 12.6998 11.0644C12.7463 11.0169 12.7829 10.9605 12.8074 10.8987C12.832 10.8368 12.8439 10.7707 12.8425 10.7042L12.8425 4.10456C12.8425 3.97198 12.7898 3.84483 12.6961 3.75108C12.6023 3.65733 12.4752 3.60464 12.3426 3.60462L5.74292 3.60462C5.67641 3.60326 5.6103 3.6152 5.54846 3.63971C5.48662 3.66423 5.4303 3.70084 5.38278 3.7474C5.33527 3.79396 5.29752 3.84953 5.27175 3.91086C5.24598 3.97219 5.23271 4.03804 5.23271 4.10456C5.23271 4.17109 5.24598 4.23694 5.27175 4.29827C5.29752 4.3596 5.33527 4.41517 5.38278 4.46173C5.4303 4.50829 5.48662 4.5449 5.54846 4.56941C5.6103 4.59393 5.67642 4.60586 5.74292 4.60451L11.1355 4.60451L4.21086 11.5292C4.16286 11.5758 4.12471 11.6316 4.09868 11.6933C4.07264 11.7549 4.05925 11.8212 4.05929 11.8881C4.05933 11.9551 4.07281 12.0213 4.09893 12.0829C4.12504 12.1445 4.16326 12.2003 4.21132 12.2469Z" fill="#1C3352"/>
</g>
<defs>
<clipPath id="clip0_252_4129">
<rect width="16" height="16" fill="white" transform="translate(0.284302)"/>
</clipPath>
</defs>
</svg>
