<svg width="16" height="16" viewBox="0 0 16 16" fill="none" xmlns="http://www.w3.org/2000/svg">
<g clip-path="url(#clip0_252_4105)">
<path d="M3.92714 12.247C4.02229 12.3392 4.15016 12.3899 4.28266 12.3879C4.41515 12.3859 4.54144 12.3314 4.63379 12.2364L11.5585 5.31174L11.5585 10.7043C11.5571 10.7709 11.569 10.837 11.5936 10.8988C11.6181 10.9606 11.6547 11.017 11.7012 11.0645C11.7478 11.112 11.8034 11.1498 11.8647 11.1755C11.926 11.2013 11.9919 11.2146 12.0584 11.2146C12.1249 11.2146 12.1908 11.2013 12.2521 11.1755C12.3134 11.1498 12.369 11.112 12.4156 11.0645C12.4621 11.017 12.4987 10.9606 12.5233 10.8988C12.5478 10.837 12.5597 10.7709 12.5584 10.7043L12.5584 4.10469C12.5583 3.9721 12.5056 3.84495 12.4119 3.7512C12.3181 3.65745 12.191 3.60477 12.0584 3.60474L5.45874 3.60474C5.39224 3.60339 5.32612 3.61532 5.26428 3.63984C5.20244 3.66435 5.14612 3.70096 5.0986 3.74752C5.05109 3.79408 5.01334 3.84965 4.98757 3.91098C4.9618 3.97231 4.94853 4.03816 4.94853 4.10469C4.94853 4.17121 4.9618 4.23706 4.98757 4.29839C5.01334 4.35972 5.05109 4.41529 5.0986 4.46185C5.14612 4.50841 5.20244 4.54502 5.26428 4.56954C5.32612 4.59405 5.39224 4.60599 5.45875 4.60463L10.8514 4.60463L3.92668 11.5293C3.87868 11.5759 3.84053 11.6318 3.8145 11.6934C3.78846 11.7551 3.77507 11.8213 3.77511 11.8883C3.77515 11.9552 3.78863 12.0214 3.81475 12.083C3.84086 12.1447 3.87908 12.2004 3.92714 12.247Z" fill="white"/>
</g>
<defs>
<clipPath id="clip0_252_4105">
<rect width="16" height="16" fill="white"/>
</clipPath>
</defs>
</svg>
