<svg width="48" height="33" viewBox="0 0 48 33" fill="none" xmlns="http://www.w3.org/2000/svg">
<path d="M47.3096 10.0579C47.3096 9.96003 47.1954 9.89747 47.1016 9.94303L46.2163 10.3715C46.0497 10.4524 45.932 10.5979 45.8973 10.7672L45.7103 11.6872L31.2244 14.227C29.9268 11.6953 27.6648 9.59147 25.3008 8.88529L24.4198 0.357884C24.3988 0.154564 24.2275 0 24.0231 0H23.2533C23.0488 0 22.8775 0.154564 22.8565 0.357884L21.9756 8.88529C19.6134 9.59106 17.3528 11.6923 16.0549 14.2216L1.59875 11.6872L1.41175 10.7671C1.377 10.5979 1.26011 10.4523 1.09344 10.3714L0.207469 9.94296C0.113561 9.8974 0 9.95996 0 10.0579V13.8972C0 14.4194 0.342721 14.8906 0.869721 15.0933L3.42237 16.073C3.02525 16.5181 2.78358 17.1047 2.78358 17.748C2.78358 19.1382 3.91054 20.2652 5.3008 20.2652C6.68698 20.2652 7.81116 19.1448 7.81776 17.7602L9.18075 18.2833C8.7293 18.7382 8.45036 19.3645 8.45036 20.0561C8.45036 21.4462 9.57732 22.5733 10.9676 22.5733C12.3578 22.5733 13.4848 21.4463 13.4848 20.0561C13.4848 20.0151 13.4837 19.9745 13.4817 19.9341L15.2022 20.5945C16.2378 24.4222 20.0527 27.268 23.6383 27.268C27.2199 27.268 31.0299 24.429 32.0703 20.6081L33.7945 19.9463C33.7929 19.9828 33.7917 20.0193 33.7917 20.0561C33.7917 21.4462 34.9187 22.5733 36.309 22.5733C37.6992 22.5733 38.8262 21.4463 38.8262 20.0561C38.8262 19.369 38.5506 18.7464 38.1043 18.2923L39.459 17.7723C39.4721 19.1512 40.5936 20.2652 41.9757 20.2652C43.3658 20.2652 44.4929 19.1382 44.4929 17.7479C44.4929 17.1091 44.2544 16.5262 43.8623 16.0823L46.4394 15.0932C46.9664 14.8906 47.3098 14.4193 47.3098 13.8971L47.3096 10.0579ZM5.3008 18.8348C4.70064 18.8348 4.21403 18.3483 4.21403 17.7481C4.21403 17.2379 4.56606 16.811 5.04009 16.6941L6.20153 17.1399C6.3189 17.3135 6.38751 17.5228 6.38751 17.7481C6.38758 18.3483 5.90104 18.8348 5.3008 18.8348ZM10.9675 21.1429C10.3673 21.1429 9.88074 20.6564 9.88074 20.0561C9.88074 19.4559 10.3673 18.9693 10.9675 18.9693L11.6912 19.247C11.9136 19.446 12.0544 19.7343 12.0544 20.0561C12.0543 20.6564 11.5677 21.1429 10.9675 21.1429ZM22.8675 18.2718C22.191 18.2339 21.5167 18.1469 20.8502 18.0092C20.2545 17.8868 19.6649 17.7243 19.0862 17.5216C18.12 17.1864 17.3754 15.995 17.3754 15.0172C17.3754 14.8077 17.4094 14.6248 17.4726 14.4705C17.7038 13.8999 18.326 13.7117 19.0862 13.9747C20.3132 14.4038 21.5865 14.6536 22.8675 14.7252V18.2718ZM28.1901 17.5216C27.6216 17.7201 27.0436 17.8806 26.4588 18.0023C25.7817 18.144 25.0963 18.2335 24.4088 18.2721V14.7251C25.6897 14.6535 26.9631 14.4038 28.19 13.9747C28.9516 13.7108 29.5765 13.9013 29.8057 14.4758C29.8676 14.6288 29.9009 14.8097 29.9009 15.0171C29.901 15.995 29.1557 17.1864 28.1901 17.5216ZM36.3089 21.1429C35.7086 21.1429 35.222 20.6564 35.222 20.0561C35.222 19.7455 35.353 19.466 35.562 19.268L36.3365 18.9707C36.9239 18.9855 37.3956 19.4652 37.3956 20.0561C37.3956 20.6564 36.909 21.1429 36.3089 21.1429ZM41.9755 18.8348C41.3753 18.8348 40.8887 18.3483 40.8887 17.7481C40.8887 17.5295 40.9539 17.3265 41.0649 17.1561L42.2556 16.699C42.7198 16.8227 43.0624 17.2448 43.0624 17.7481C43.0623 18.3483 42.5757 18.8348 41.9755 18.8348Z" fill="#1C3352"/>
<path d="M17.5069 10.3306C18.3881 9.46493 19.3456 8.77814 20.3303 8.29602L13.5091 7.09921L13.4228 6.67625C13.4071 6.59805 13.3534 6.53135 13.2766 6.49395L12.8693 6.29681C12.8257 6.27567 12.7734 6.30491 12.7734 6.34979V8.11643C12.7734 8.35715 12.9311 8.574 13.174 8.66723L17.5069 10.3306Z" fill="#1C3352"/>
<path d="M34.1411 8.66735C34.3838 8.57419 34.5416 8.35727 34.5416 8.11655V6.34991C34.5416 6.30503 34.4892 6.27579 34.4464 6.29694L34.0384 6.49407C33.9622 6.53147 33.9077 6.59811 33.8922 6.67638L33.8057 7.09934L26.9609 8.30022C27.9462 8.78363 28.903 9.47179 29.7842 10.3395L34.1411 8.66735Z" fill="#1C3352"/>
<path d="M21.3941 28.7732C20.9435 28.7732 20.5781 29.1385 20.5781 29.5892V31.7992C20.5781 32.2498 20.9435 32.6152 21.3941 32.6152C21.8448 32.6152 22.2101 32.2498 22.2101 31.7992V31.2712C22.2164 31.2714 22.2225 31.2722 22.2287 31.2722H22.8447L22.8577 31.3984C22.8788 31.6017 23.0501 31.756 23.2548 31.756H24.0246C24.2293 31.756 24.4006 31.6017 24.4217 31.3984L24.4347 31.2722H25.0507C25.0635 31.2722 25.0762 31.2711 25.0888 31.2703V31.7992C25.0888 32.2498 25.4541 32.6152 25.9048 32.6152C26.3555 32.6152 26.7208 32.2498 26.7208 31.7992V29.5892C26.7208 29.1385 26.3555 28.7732 25.9048 28.7732C25.4541 28.7732 25.0888 29.1385 25.0888 29.5892V30.1181C25.0762 30.1171 25.0636 30.1162 25.0507 30.1162H24.5541L24.7365 28.3499C24.3721 28.3988 24.0063 28.424 23.6397 28.424C23.2732 28.424 22.9066 28.3988 22.5428 28.3505L22.7253 30.1162H22.2287C22.2224 30.1162 22.2163 30.1168 22.2101 30.1171V29.5892C22.2101 29.1385 21.8448 28.7732 21.3941 28.7732Z" fill="#1C3352"/>
</svg>
