<svg width="75" height="44" viewBox="0 0 75 44" fill="none" xmlns="http://www.w3.org/2000/svg">
<path d="M74.9997 15.9448C74.9997 15.7896 74.8186 15.6904 74.6698 15.7626L73.2664 16.4419C73.0023 16.5702 72.8158 16.8008 72.7608 17.0692L72.4643 18.5277L49.4998 22.554C47.4428 18.5405 43.8569 15.2053 40.1092 14.0858L38.7126 0.567351C38.6793 0.245029 38.4077 0 38.0837 0H36.8633C36.5391 0 36.2676 0.245029 36.2343 0.567351L34.8378 14.0858C31.093 15.2046 27.5093 18.5358 25.4517 22.5454L2.53449 18.5276L2.23804 17.069C2.18295 16.8007 1.99764 16.5699 1.73342 16.4418L0.328899 15.7625C0.180027 15.6903 0 15.7895 0 15.9447V22.0311C0 22.859 0.543313 23.606 1.37876 23.9273L5.42547 25.4805C4.79591 26.186 4.41279 27.116 4.41279 28.1358C4.41279 30.3397 6.19936 32.1263 8.40333 32.1263C10.6008 32.1263 12.383 30.3501 12.3934 28.1551L14.5542 28.9844C13.8385 29.7056 13.3963 30.6984 13.3963 31.7947C13.3963 33.9986 15.1829 35.7853 17.3868 35.7853C19.5907 35.7853 21.3774 33.9987 21.3774 31.7947C21.3774 31.7298 21.3756 31.6655 21.3725 31.6013L24.1 32.6483C25.7417 38.7164 31.7894 43.2278 37.4736 43.2278C43.1515 43.2278 49.1915 38.7271 50.8408 32.67L53.5742 31.6208C53.5717 31.6785 53.5698 31.7364 53.5698 31.7947C53.5698 33.9986 55.3565 35.7853 57.5604 35.7853C59.7643 35.7853 61.5509 33.9987 61.5509 31.7947C61.5509 30.7055 61.114 29.7186 60.4065 28.9986L62.5542 28.1743C62.5749 30.3604 64.3528 32.1262 66.5437 32.1262C68.7476 32.1262 70.5343 30.3397 70.5343 28.1357C70.5343 27.1229 70.1562 26.1988 69.5347 25.4952L73.6202 23.9272C74.4556 23.6059 75 22.8589 75 22.031L74.9997 15.9448ZM8.40333 29.8588C7.45189 29.8588 6.68047 29.0875 6.68047 28.1359C6.68047 27.3271 7.23855 26.6504 7.99003 26.465L9.83125 27.1718C10.0173 27.447 10.1261 27.7788 10.1261 28.1359C10.1262 29.0875 9.35488 29.8588 8.40333 29.8588ZM17.3867 33.5177C16.4352 33.5177 15.6639 32.7464 15.6639 31.7948C15.6639 30.8433 16.4352 30.072 17.3867 30.072L18.5341 30.5121C18.8866 30.8276 19.1097 31.2846 19.1097 31.7948C19.1096 32.7464 18.3382 33.5177 17.3867 33.5177ZM36.2517 28.9662C35.1793 28.906 34.1103 28.7682 33.0536 28.5499C32.1093 28.3558 31.1747 28.0982 30.2573 27.7769C28.7255 27.2455 27.545 25.3568 27.545 23.8067C27.545 23.4746 27.599 23.1846 27.6992 22.9399C28.0657 22.0355 29.0521 21.737 30.2573 22.1541C32.2024 22.8343 34.221 23.2302 36.2517 23.3438V28.9662ZM44.6896 27.7768C43.7884 28.0916 42.8721 28.346 41.945 28.539C40.8715 28.7636 39.7851 28.9055 38.6951 28.9666V23.3437C40.7258 23.2301 42.7444 22.8342 44.6894 22.154C45.8968 21.7357 46.8875 22.0377 47.2508 22.9485C47.3489 23.191 47.4017 23.4778 47.4017 23.8065C47.4019 25.3567 46.2204 27.2455 44.6896 27.7768ZM57.5602 33.5177C56.6087 33.5177 55.8373 32.7464 55.8373 31.7948C55.8373 31.3024 56.0449 30.8594 56.3761 30.5454L57.6041 30.0741C58.5352 30.0976 59.283 30.8581 59.283 31.7948C59.283 32.7464 58.5117 33.5177 57.5602 33.5177ZM66.5435 29.8588C65.5921 29.8588 64.8207 29.0875 64.8207 28.1359C64.8207 27.7894 64.9239 27.4675 65.1 27.1974L66.9876 26.4729C67.7235 26.669 68.2665 27.3381 68.2665 28.1359C68.2664 29.0875 67.4951 29.8588 66.5435 29.8588Z" fill="white"/>
</svg>
