<svg width="24" height="24" viewBox="0 0 24 24" fill="none" xmlns="http://www.w3.org/2000/svg">
<path d="M20.7558 11.9945C20.7529 11.7993 20.6741 11.613 20.5361 11.475L13.5361 4.47497C13.4669 4.40299 13.3842 4.34553 13.2926 4.30594C13.201 4.26635 13.1024 4.24544 13.0026 4.24442C12.9028 4.24341 12.8039 4.26231 12.7115 4.30003C12.6191 4.33775 12.5352 4.39352 12.4646 4.46408C12.3941 4.53464 12.3383 4.61856 12.3006 4.71094C12.2629 4.80333 12.244 4.90231 12.245 5.00209C12.246 5.10186 12.2669 5.20044 12.3065 5.29203C12.3461 5.38363 12.4035 5.46641 12.4755 5.53552L18.1952 11.2552H3.50578C3.4064 11.2538 3.30773 11.2722 3.2155 11.3093C3.12328 11.3463 3.03934 11.4013 2.96856 11.4711C2.89778 11.5409 2.84158 11.6241 2.80322 11.7158C2.76486 11.8074 2.7451 11.9058 2.7451 12.0052C2.7451 12.1046 2.76486 12.203 2.80322 12.2947C2.84158 12.3864 2.89778 12.4696 2.96856 12.5394C3.03934 12.6091 3.12328 12.6642 3.2155 12.7012C3.30773 12.7383 3.4064 12.7566 3.50578 12.7552L18.1952 12.7552L12.4755 18.475C12.4035 18.5441 12.3461 18.6269 12.3065 18.7185C12.2669 18.81 12.246 18.9086 12.245 19.0084C12.244 19.1082 12.2629 19.2072 12.3006 19.2995C12.3383 19.3919 12.3941 19.4759 12.4646 19.5464C12.5352 19.617 12.6191 19.6727 12.7115 19.7105C12.8039 19.7482 12.9028 19.7671 13.0026 19.7661C13.1024 19.765 13.201 19.7441 13.2926 19.7045C13.3842 19.665 13.4669 19.6075 13.5361 19.5355L20.5361 12.5355C20.607 12.4646 20.663 12.3802 20.7007 12.2873C20.7385 12.1943 20.7572 12.0948 20.7558 11.9945Z" fill="#3C81C5"/>
</svg>
