<svg width="41" height="36" viewBox="0 0 41 36" fill="none" xmlns="http://www.w3.org/2000/svg">
<path d="M0.0952148 32.3077C0.1006 33.2581 0.480533 34.168 1.15258 34.8401C1.82462 35.5121 2.73456 35.892 3.68496 35.8974H36.5055C37.4559 35.892 38.3658 35.5121 39.0379 34.8401C39.7099 34.168 40.0898 33.2581 40.0952 32.3077V15.3846H0.0952148V32.3077ZM28.3003 20H32.4029C32.8109 20 33.2022 20.1621 33.4908 20.4506C33.7793 20.7391 33.9414 21.1304 33.9414 21.5385C33.9414 21.9465 33.7793 22.3378 33.4908 22.6263C33.2022 22.9148 32.8109 23.0769 32.4029 23.0769H28.3003C27.8923 23.0769 27.501 22.9148 27.2125 22.6263C26.924 22.3378 26.7619 21.9465 26.7619 21.5385C26.7619 21.1304 26.924 20.7391 27.2125 20.4506C27.501 20.1621 27.8923 20 28.3003 20ZM28.3003 28.2051H32.4029C32.8109 28.2051 33.2022 28.3672 33.4908 28.6557C33.7793 28.9442 33.9414 29.3356 33.9414 29.7436C33.9414 30.1516 33.7793 30.5429 33.4908 30.8314C33.2022 31.12 32.8109 31.282 32.4029 31.282H28.3003C27.8923 31.282 27.501 31.12 27.2125 30.8314C26.924 30.5429 26.7619 30.1516 26.7619 29.7436C26.7619 29.3356 26.924 28.9442 27.2125 28.6557C27.501 28.3672 27.8923 28.2051 28.3003 28.2051ZM18.0439 20H22.1465C22.5545 20 22.9458 20.1621 23.2344 20.4506C23.5229 20.7391 23.685 21.1304 23.685 21.5385C23.685 21.9465 23.5229 22.3378 23.2344 22.6263C22.9458 22.9148 22.5545 23.0769 22.1465 23.0769H18.0439C17.6359 23.0769 17.2446 22.9148 16.9561 22.6263C16.6676 22.3378 16.5055 21.9465 16.5055 21.5385C16.5055 21.1304 16.6676 20.7391 16.9561 20.4506C17.2446 20.1621 17.6359 20 18.0439 20ZM18.0439 28.2051H22.1465C22.5545 28.2051 22.9458 28.3672 23.2344 28.6557C23.5229 28.9442 23.685 29.3356 23.685 29.7436C23.685 30.1516 23.5229 30.5429 23.2344 30.8314C22.9458 31.12 22.5545 31.282 22.1465 31.282H18.0439C17.6359 31.282 17.2446 31.12 16.9561 30.8314C16.6676 30.5429 16.5055 30.1516 16.5055 29.7436C16.5055 29.3356 16.6676 28.9442 16.9561 28.6557C17.2446 28.3672 17.6359 28.2051 18.0439 28.2051ZM7.78752 20H11.8901C12.2981 20 12.6894 20.1621 12.9779 20.4506C13.2665 20.7391 13.4285 21.1304 13.4285 21.5385C13.4285 21.9465 13.2665 22.3378 12.9779 22.6263C12.6894 22.9148 12.2981 23.0769 11.8901 23.0769H7.78752C7.3795 23.0769 6.98818 22.9148 6.69967 22.6263C6.41115 22.3378 6.24906 21.9465 6.24906 21.5385C6.24906 21.1304 6.41115 20.7391 6.69967 20.4506C6.98818 20.1621 7.3795 20 7.78752 20ZM7.78752 28.2051H11.8901C12.2981 28.2051 12.6894 28.3672 12.9779 28.6557C13.2665 28.9442 13.4285 29.3356 13.4285 29.7436C13.4285 30.1516 13.2665 30.5429 12.9779 30.8314C12.6894 31.12 12.2981 31.282 11.8901 31.282H7.78752C7.3795 31.282 6.98818 31.12 6.69967 30.8314C6.41115 30.5429 6.24906 30.1516 6.24906 29.7436C6.24906 29.3356 6.41115 28.9442 6.69967 28.6557C6.98818 28.3672 7.3795 28.2051 7.78752 28.2051ZM40.0952 5.64102V12.3077H0.0952148V5.64102C0.1006 4.69063 0.480533 3.78068 1.15258 3.10864C1.82462 2.4366 2.73456 2.05667 3.68496 2.05128H10.3516V1.53846C10.3516 1.13044 10.5137 0.739123 10.8022 0.450606C11.0907 0.162088 11.4821 0 11.8901 0C12.2981 0 12.6894 0.162088 12.9779 0.450606C13.2665 0.739123 13.4285 1.13044 13.4285 1.53846V2.05128H26.7619V1.53846C26.7619 1.13044 26.924 0.739123 27.2125 0.450606C27.501 0.162088 27.8923 0 28.3003 0C28.7084 0 29.0997 0.162088 29.3882 0.450606C29.6767 0.739123 29.8388 1.13044 29.8388 1.53846V2.05128H36.5055C37.4559 2.05667 38.3658 2.4366 39.0379 3.10864C39.7099 3.78068 40.0898 4.69063 40.0952 5.64102Z" fill="#1C3352"/>
</svg>
