<svg width="35" height="35" viewBox="0 0 35 35" fill="none" xmlns="http://www.w3.org/2000/svg">
<path d="M19.6875 8.92363V7.65625H20.7812C21.3855 7.65625 21.875 7.1668 21.875 6.5625V5.46875C21.875 4.86445 21.3855 4.375 20.7812 4.375H14.2188C13.6145 4.375 13.125 4.86445 13.125 5.46875V6.5625C13.125 7.1668 13.6145 7.65625 14.2188 7.65625H15.3125V8.92363C7.89482 9.98799 2.1875 16.3502 2.1875 24.0625H32.8125C32.8125 16.3502 27.1052 9.98799 19.6875 8.92363ZM33.9062 26.25H1.09375C0.489453 26.25 0 26.7395 0 27.3438V29.5312C0 30.1355 0.489453 30.625 1.09375 30.625H33.9062C34.5105 30.625 35 30.1355 35 29.5312V27.3438C35 26.7395 34.5105 26.25 33.9062 26.25Z" fill="#1C3352"/>
</svg>
