<svg width="48" height="48" viewBox="0 0 48 48" fill="none" xmlns="http://www.w3.org/2000/svg">
<path d="M24 2C14.6293 2 7 9.62925 7 19C7 22.9036 9.35977 27.5755 12.1484 32.2246C14.9371 36.8737 18.2458 41.3722 20.4375 44.2227C22.2135 46.5324 25.7865 46.5324 27.5625 44.2227C29.7548 41.3721 33.0628 36.8737 35.8516 32.2246C38.6404 27.5755 41 22.9036 41 19C41 9.62925 33.3707 2 24 2ZM24 5C31.7493 5 38 11.2507 38 19C38 21.5404 35.9682 26.199 33.2793 30.6816C30.5904 35.1643 27.3343 39.598 25.1836 42.3945C24.5636 43.2008 23.4344 43.2008 22.8145 42.3945C20.6642 39.598 17.4095 35.1643 14.7207 30.6816C12.0319 26.199 10 21.5404 10 19C10 11.2507 16.2507 5 24 5ZM24 11.0059C23.777 11.0057 23.5541 11.0791 23.3691 11.2246L17.7617 15.6406C17.2807 16.0206 17 16.5999 17 17.2129V25C17 25.552 17.448 26 18 26H21C21.552 26 22 25.552 22 25V21C22 20.448 22.448 20 23 20H25C25.552 20 26 20.448 26 21V25C26 25.552 26.448 26 27 26H30C30.552 26 31 25.552 31 25V17.2129C31 16.5999 30.7193 16.0216 30.2383 15.6426L24.6309 11.2246C24.4459 11.0786 24.223 11.006 24 11.0059Z" fill="#0F1F35"/>
</svg>
