<svg width="48" height="48" viewBox="0 0 48 48" fill="none" xmlns="http://www.w3.org/2000/svg">
<g clip-path="url(#clip0_144_2308)">
<path d="M10.5077 8.22854C10.1908 8.79249 9.94285 9.40072 9.77509 10.0405C8.28504 15.7224 9.89105 22.4378 14.1632 29.987C18.4412 37.5466 23.3514 42.3387 28.9583 43.8649C31.4783 44.5514 34.1972 43.8468 36.1044 42.0345L37.8952 40.335C39.8964 38.4353 40.2317 35.3239 38.6354 33.0764L36.0941 29.4937C34.7329 27.5753 32.2682 26.7604 30.0229 27.4703L26.1035 28.7121C25.9833 28.75 25.8638 28.7417 25.7639 28.6987L25.7622 28.6977C25.557 28.6084 25.4679 28.6049 24.9827 28.1259C24.4966 27.646 23.7416 26.7153 22.7631 24.986C21.8513 23.3755 21.3242 22.0582 21.1639 21.2324C21.0755 20.7699 21.0766 20.3042 21.2062 20.1788L21.2072 20.1771L24.3004 17.2608C26.0192 15.6423 26.5474 13.1115 25.6055 10.9574L25.6047 10.9548L23.8447 6.93685L23.8457 6.93516C22.7429 4.41802 19.8943 3.12292 17.2662 3.93263L14.9189 4.65453C13.6591 5.04298 12.5414 5.75108 11.6542 6.68028C11.2107 7.14489 10.8247 7.66458 10.5077 8.22854ZM13.1241 9.70076C13.3187 9.35735 13.556 9.04029 13.8275 8.75594C14.3704 8.18723 15.0512 7.75354 15.803 7.52171L18.1486 6.79884C19.3493 6.4289 20.5982 7.0008 21.0975 8.14051L22.8575 12.1584C23.2881 13.1432 23.0505 14.3171 22.244 15.0766L19.1385 18.0062L19.1348 18.0086C17.6607 19.4191 18.1339 21.3563 18.2194 21.8012L18.2185 21.8029L18.2201 21.8039C18.4869 23.1784 19.1491 24.6925 20.1525 26.4648C21.2276 28.3646 22.1223 29.5198 22.8743 30.2622C23.6263 31.0046 24.3637 31.3605 24.5663 31.4488C25.3393 31.7847 26.2073 31.825 27.0072 31.5726L30.9283 30.3317C31.963 30.0046 33.0316 30.3623 33.6466 31.229L33.6456 31.2307L36.1896 34.8127C36.9067 35.8223 36.7632 37.2753 35.8312 38.1601L34.0403 39.8595L34.0386 39.8586C32.889 40.9518 31.2254 41.374 29.7472 40.9713C25.2656 39.7513 20.8344 35.6817 16.7755 28.5092C12.7221 21.3466 11.472 15.3935 12.6766 10.8001C12.7779 10.4139 12.9296 10.0442 13.1241 9.70076Z" fill="#1C3352"/>
</g>
<defs>
<clipPath id="clip0_144_2308">
<rect width="48" height="48" fill="white"/>
</clipPath>
</defs>
</svg>
