<svg width="43" height="37" viewBox="0 0 43 37" fill="none" xmlns="http://www.w3.org/2000/svg">
<path d="M30.9413 23.654C30.5512 24.9896 29.9941 26.2724 29.2826 27.473H32.7434C32.8931 27.5626 33.0513 27.6375 33.2158 27.6967C33.6034 27.8379 34.0209 27.8804 34.4296 27.8202C34.8383 27.76 35.2249 27.5992 35.5534 27.3526L36.5052 26.7161C36.0839 27.6332 35.5864 28.5147 35.018 29.3516C33.7531 31.1973 32.1371 32.7851 30.2589 34.0273C29.3093 34.6548 28.3017 35.1927 27.2494 35.6341C26.1717 36.0892 25.0497 36.4351 23.9006 36.6663C21.5587 37.1205 19.1492 37.1205 16.8074 36.6663C15.6783 36.4421 14.5751 36.1067 13.5145 35.6651L13.4585 35.6444C12.4066 35.2023 11.3991 34.6644 10.4491 34.0377C9.51133 33.4183 8.63704 32.7108 7.83856 31.9252C7.48862 31.5811 7.15968 31.237 6.84124 30.8586C7.34661 30.4315 7.8771 30.034 8.42995 29.6681C8.69356 29.9686 8.96651 30.2576 9.24879 30.5352C9.95306 31.231 10.7255 31.8568 11.5549 32.4034C12.4052 32.9608 13.306 33.4399 14.2459 33.8347L14.2914 33.8553C15.2268 34.2436 16.2 34.5376 17.1958 34.7327C17.4443 34.7808 17.6997 34.8256 17.9552 34.86C15.8337 33.1314 13.9514 31.1373 12.3562 28.9284H9.55674C10.6065 28.2747 11.7753 27.6382 12.9336 27.0395C13.0211 27.1875 13.1121 27.332 13.2066 27.4765H19.5964V23.9533L20.0863 23.7503C20.3181 24.1877 20.6859 24.5409 21.1361 24.7584V27.473H27.4944C29.0131 25.13 29.832 22.7698 29.9439 20.3958L30.9518 23.654H30.9413ZM17.9692 18.0459C18.2071 17.2992 18.8685 16.7006 19.8273 16.095L16.5519 12.331C16.3315 12.1418 16.3875 11.987 16.5939 11.8528L17.6822 11.3952C17.7699 11.368 17.8625 11.3597 17.9537 11.371C18.0449 11.3823 18.1326 11.4128 18.2106 11.4606L22.9662 13.8174L28.5652 10.6348L20.8246 1.17324C20.6252 0.956488 20.6532 0.7879 20.9646 0.677801L22.7143 -0.0103149L34.3461 7.38349L38.5453 5.37763C40.1445 4.68952 41.5233 4.57942 42.3946 5.09207C42.5983 5.17438 42.7692 5.31958 42.8816 5.50578C42.9939 5.69197 43.0416 5.90904 43.0175 6.12424C43.035 7.15641 42.1567 8.27116 40.6065 9.22076L36.2428 10.8929L35.8928 24.4935L34.3321 25.5257C34.0627 25.7149 33.9052 25.6461 33.8352 25.3605L30.2239 13.7623L24.401 16.5148L23.7011 21.6757C23.6963 21.7683 23.6709 21.8588 23.6268 21.9409C23.5827 22.0229 23.5209 22.0944 23.4457 22.1505L22.4553 22.7766C22.2279 22.8661 22.0669 22.8248 22.0354 22.5392L20.7197 17.7568C19.6699 18.1972 18.788 18.3968 18.0252 18.1628C17.9552 18.1422 17.9482 18.1112 17.9692 18.0459ZM16.4994 15.6615C11.8733 18.0699 5.68646 21.9819 3.41188 24.263C-4.02774 31.7944 1.77768 37.664 10.4701 35.0939C7.74757 34.6983 5.61647 34.1581 4.43369 33.3943C-0.615872 30.1326 15.6316 23.0932 19.4319 21.5518L19.1345 20.468C18.5366 20.5213 17.934 20.4594 17.3603 20.2857L17.1468 20.1928C16.8643 20.09 16.6073 19.9291 16.3931 19.7208C16.1789 19.5125 16.0123 19.2617 15.9046 18.9851L15.8591 18.8647C15.6714 18.395 15.6627 17.8745 15.8346 17.399C16.011 16.8372 16.2975 16.3147 16.6779 15.8611L16.5064 15.6615H16.4994ZM2.79949 21.7135C2.71893 21.0156 2.6792 20.3137 2.68052 19.6113C2.67942 18.4399 2.79664 17.2712 3.03045 16.1226C3.25559 15.0122 3.59563 13.9273 4.04526 12.885L4.06626 12.8334C4.51851 11.7986 5.06672 10.807 5.70395 9.87103C6.3318 8.94955 7.05029 8.09101 7.84905 7.3078C8.64754 6.52212 9.52183 5.81462 10.4596 5.19528C11.4096 4.56859 12.4171 4.03066 13.469 3.58853C14.5469 3.13391 15.6689 2.78808 16.8179 2.55636C17.4965 2.42362 18.1824 2.32942 18.872 2.27423C18.9504 2.39451 19.0369 2.50945 19.131 2.61829L21.1326 5.07142V10.2736H24.7089L22.8928 11.3058L19.5964 9.67492V5.0611C17.7382 6.62733 16.0453 8.37365 14.5433 10.2736H15.0087C14.636 10.5889 14.3709 11.0093 14.2494 11.4778C14.2225 11.5679 14.2026 11.6599 14.1899 11.753V11.784H13.4655C12.6247 13.0426 11.9498 14.401 11.4569 15.8267C10.8235 16.2017 10.1866 16.5836 9.55674 16.9758C9.96673 15.1407 10.6757 13.3829 11.6563 11.7702H6.83774C6.4888 12.3611 6.17678 12.9724 5.90342 13.6006L5.88242 13.6453C5.48477 14.5689 5.18572 15.5305 4.99009 16.5148C4.83345 17.2886 4.73751 18.073 4.70314 18.8613H6.64878C5.31538 19.7458 4.0305 20.699 2.79949 21.7169V21.7135ZM29.9229 20.3717H26.1401L26.3466 18.8578H29.461L29.9264 20.3717H29.9229ZM28.3447 28.925C26.748 31.1336 24.8659 33.1287 22.7458 34.86C23.0012 34.8221 23.2532 34.7774 23.5051 34.7292C24.5157 34.5288 25.5029 34.2279 26.4516 33.8312C27.3918 33.4372 28.2927 32.9581 29.1426 32.4C29.972 31.8534 30.7444 31.2276 31.4487 30.5317C31.9695 30.0314 32.4526 29.4944 32.8939 28.925H28.3447ZM21.1291 34.2338C23.1095 32.6728 24.8991 30.8913 26.4621 28.925H21.1291V34.2338ZM19.5964 28.925H14.2599C15.8249 30.8907 17.6156 32.6721 19.5964 34.2338V28.925ZM12.6537 10.2736C14.2303 8.09993 16.0574 6.11297 18.0986 4.35234C17.7977 4.39363 17.5003 4.4418 17.2063 4.50029C16.1937 4.69693 15.2049 4.99793 14.2564 5.39828C13.3165 5.79303 12.4157 6.27216 11.5654 6.82956C10.736 7.37615 9.96356 8.00193 9.25929 8.69779C8.75581 9.189 8.28807 9.71442 7.85955 10.2701L12.6537 10.2736Z" fill="#1C3352"/>
</svg>
