<svg width="40" height="40" viewBox="0 0 40 40" fill="none" xmlns="http://www.w3.org/2000/svg">
<path d="M17.0833 2.5C15.1695 2.5 13.588 3.97219 13.3756 5.83333H10.4166C8.34913 5.83333 6.66663 7.515 6.66663 9.58333V32.0833C6.66663 34.1508 8.34913 35.8333 10.4166 35.8333H20.6396C20.0446 35.0733 19.5433 34.2367 19.1666 33.3333H10.4166C9.72746 33.3333 9.16663 32.7725 9.16663 32.0833V9.58333C9.16663 8.89417 9.72746 8.33333 10.4166 8.33333H13.9746C14.651 9.33492 15.7956 10 17.0833 10H22.9166C24.2044 10 25.3489 9.33492 26.0253 8.33333H29.5833C30.2725 8.33333 30.8333 8.89417 30.8333 9.58333V18.4749C31.7041 18.6099 32.5441 18.8359 33.3333 19.165V9.58333C33.3333 7.515 31.6508 5.83333 29.5833 5.83333H26.6243C26.4119 3.97219 24.8305 2.5 22.9166 2.5H17.0833ZM17.0833 5H22.9166C23.622 5 24.1666 5.54458 24.1666 6.25C24.1666 6.95542 23.622 7.5 22.9166 7.5H17.0833C16.3779 7.5 15.8333 6.95542 15.8333 6.25C15.8333 5.54458 16.3779 5 17.0833 5ZM13.75 13.3333C13.5843 13.331 13.4199 13.3616 13.2662 13.4234C13.1124 13.4851 12.9725 13.5768 12.8546 13.6931C12.7366 13.8094 12.6429 13.948 12.579 14.1009C12.5151 14.2537 12.4822 14.4177 12.4822 14.5833C12.4822 14.749 12.5151 14.913 12.579 15.0658C12.6429 15.2186 12.7366 15.3572 12.8546 15.4735C12.9725 15.5898 13.1124 15.6815 13.2662 15.7433C13.4199 15.8051 13.5843 15.8357 13.75 15.8333H26.25C26.4156 15.8357 26.5801 15.8051 26.7338 15.7433C26.8875 15.6815 27.0274 15.5898 27.1453 15.4735C27.2633 15.3572 27.357 15.2186 27.4209 15.0658C27.4848 14.913 27.5178 14.749 27.5178 14.5833C27.5178 14.4177 27.4848 14.2537 27.4209 14.1009C27.357 13.948 27.2633 13.8094 27.1453 13.6931C27.0274 13.5768 26.8875 13.4851 26.7338 13.4234C26.5801 13.3616 26.4156 13.331 26.25 13.3333H13.75ZM13.75 18.3333C13.5843 18.331 13.4199 18.3616 13.2662 18.4234C13.1124 18.4851 12.9725 18.5768 12.8546 18.6931C12.7366 18.8094 12.6429 18.948 12.579 19.1008C12.5151 19.2537 12.4822 19.4177 12.4822 19.5833C12.4822 19.749 12.5151 19.913 12.579 20.0658C12.6429 20.2186 12.7366 20.3572 12.8546 20.4735C12.9725 20.5898 13.1124 20.6815 13.2662 20.7433C13.4199 20.8051 13.5843 20.8357 13.75 20.8333H19.5833C19.7489 20.8357 19.9134 20.8051 20.0671 20.7433C20.2208 20.6815 20.3607 20.5898 20.4787 20.4735C20.5966 20.3572 20.6903 20.2186 20.7542 20.0658C20.8182 19.913 20.8511 19.749 20.8511 19.5833C20.8511 19.4177 20.8182 19.2537 20.7542 19.1008C20.6903 18.948 20.5966 18.8094 20.4787 18.6931C20.3607 18.5768 20.2208 18.4851 20.0671 18.4234C19.9134 18.3616 19.7489 18.331 19.5833 18.3333H13.75ZM29.1666 20C24.1041 20 20 24.1042 20 29.1667C20 34.2292 24.1041 38.3333 29.1666 38.3333C34.2291 38.3333 38.3333 34.2292 38.3333 29.1667C38.3333 24.1042 34.2291 20 29.1666 20ZM34.1666 25C34.3798 25 34.5929 25.0812 34.7558 25.2441C35.0817 25.57 35.0817 26.0967 34.7558 26.4225L28.0892 33.0892C27.9267 33.2517 27.7133 33.3333 27.5 33.3333C27.2866 33.3333 27.0733 33.2517 26.9108 33.0892L23.5774 29.7559C23.2516 29.43 23.2516 28.9033 23.5774 28.5775C23.9033 28.2516 24.43 28.2516 24.7558 28.5775L27.5 31.3216L33.5774 25.2441C33.7403 25.0812 33.9535 25 34.1666 25Z" fill="#1C3352"/>
</svg>
