<svg width="24" height="24" viewBox="0 0 24 24" fill="none" xmlns="http://www.w3.org/2000/svg">
<path d="M11.5 20.9996C10.2369 19.9222 9.06619 18.7411 8 17.4686C6.4 15.5576 4.5 12.7116 4.5 9.9996C4.49931 8.61456 4.90951 7.26045 5.67869 6.10863C6.44788 4.95681 7.54147 4.05906 8.82107 3.529C10.1007 2.99894 11.5087 2.86039 12.8671 3.1309C14.2255 3.4014 15.4731 4.06879 16.452 5.0486C17.1038 5.69746 17.6203 6.46914 17.9719 7.31898C18.3234 8.16881 18.5029 9.07993 18.5 9.9996C18.5 12.7116 16.6 15.5576 15 17.4686C13.9338 18.7411 12.7631 19.9222 11.5 20.9996ZM11.5 6.9996C10.7044 6.9996 9.94129 7.31567 9.37868 7.87828C8.81607 8.44089 8.5 9.20395 8.5 9.9996C8.5 10.7953 8.81607 11.5583 9.37868 12.1209C9.94129 12.6835 10.7044 12.9996 11.5 12.9996C12.2957 12.9996 13.0587 12.6835 13.6213 12.1209C14.1839 11.5583 14.5 10.7953 14.5 9.9996C14.5 9.20395 14.1839 8.44089 13.6213 7.87828C13.0587 7.31567 12.2957 6.9996 11.5 6.9996Z" fill="white"/>
</svg>
