<svg width="24" height="24" viewBox="0 0 24 24" fill="none" xmlns="http://www.w3.org/2000/svg">
<path d="M4 3C4 2.20435 4.31607 1.44129 4.87868 0.87868C5.44129 0.316071 6.20435 0 7 0L16 0C16.7956 0 17.5587 0.316071 18.1213 0.87868C18.6839 1.44129 19 2.20435 19 3V21C19 21.7956 18.6839 22.5587 18.1213 23.1213C17.5587 23.6839 16.7956 24 16 24H7C6.20435 24 5.44129 23.6839 4.87868 23.1213C4.31607 22.5587 4 21.7956 4 21V3ZM13 19.5C13 19.1022 12.842 18.7206 12.5607 18.4393C12.2794 18.158 11.8978 18 11.5 18C11.1022 18 10.7206 18.158 10.4393 18.4393C10.158 18.7206 10 19.1022 10 19.5C10 19.8978 10.158 20.2794 10.4393 20.5607C10.7206 20.842 11.1022 21 11.5 21C11.8978 21 12.2794 20.842 12.5607 20.5607C12.842 20.2794 13 19.8978 13 19.5Z" fill="white"/>
</svg>
