<svg width="24" height="24" viewBox="0 0 24 24" fill="none" xmlns="http://www.w3.org/2000/svg">
<path d="M4.1437 4.7998H20.0437C21.5437 4.7998 22.2997 5.5078 22.2997 6.9478V17.0518C22.2997 18.4798 21.5437 19.1998 20.0437 19.1998H4.1437C2.6437 19.1998 1.8877 18.4798 1.8877 17.0518V6.9478C1.8877 5.5078 2.6437 4.7998 4.1437 4.7998ZM12.0877 15.1198L20.1757 8.4838C20.4637 8.2438 20.6917 7.6918 20.3317 7.1998C19.9837 6.7078 19.3477 6.6958 18.9277 6.9958L12.0877 11.6278L5.2597 6.9958C4.8397 6.6958 4.2037 6.7078 3.8557 7.1998C3.4957 7.6918 3.7237 8.2438 4.0117 8.4838L12.0877 15.1198Z" fill="white"/>
</svg>
