<svg width="24" height="24" viewBox="0 0 24 24" fill="none" xmlns="http://www.w3.org/2000/svg">
<path d="M21.7431 5.98922C21.545 5.9939 21.3568 6.07675 21.2196 6.21969L11.9999 15.4394L2.78017 6.21969C2.71026 6.1477 2.62661 6.09047 2.53419 6.05138C2.44176 6.0123 2.34243 5.99216 2.24208 5.99215C2.09282 5.99219 1.94696 6.03676 1.82317 6.12015C1.69938 6.20355 1.60329 6.32198 1.54719 6.4603C1.49109 6.59861 1.47753 6.75052 1.50824 6.89659C1.53896 7.04266 1.61256 7.17624 1.71962 7.28024L11.4696 17.0302C11.6103 17.1708 11.801 17.2498 11.9999 17.2498C12.1988 17.2498 12.3895 17.1708 12.5302 17.0302L22.2802 7.28024C22.3892 7.17556 22.4641 7.04037 22.495 6.89239C22.5259 6.74441 22.5114 6.59054 22.4533 6.45097C22.3952 6.3114 22.2964 6.19263 22.1696 6.11023C22.0429 6.02783 21.8942 5.98565 21.7431 5.98922Z" fill="#C6C6C6"/>
</svg>
