<svg width="36" height="36" viewBox="0 0 36 36" fill="none" xmlns="http://www.w3.org/2000/svg">
<path d="M21.6 5.39999H25.2L32.4 18H34.2C34.6774 18 35.1352 18.1896 35.4728 18.5272C35.8104 18.8648 36 19.3226 36 19.8C36 20.2774 35.8104 20.7352 35.4728 21.0728C35.1352 21.4103 34.6774 21.6 34.2 21.6H32.4V32.4C32.4 32.8774 32.2104 33.3352 31.8728 33.6728C31.5352 34.0103 31.0774 34.2 30.6 34.2H28.8C28.3226 34.2 27.8648 34.0103 27.5272 33.6728C27.1896 33.3352 27 32.8774 27 32.4V30.6H9V32.4C9 32.8774 8.81036 33.3352 8.47279 33.6728C8.13523 34.0103 7.67739 34.2 7.2 34.2H5.4C4.92261 34.2 4.46477 34.0103 4.12721 33.6728C3.78964 33.3352 3.6 32.8774 3.6 32.4V21.6H1.8C1.32261 21.6 0.864773 21.4103 0.527208 21.0728C0.189642 20.7352 0 20.2774 0 19.8C0 19.3226 0.189642 18.8648 0.527208 18.5272C0.864773 18.1896 1.32261 18 1.8 18H3.6L10.8 5.39999H14.4V1.79999H21.6V5.39999ZM28.548 18L23.4 8.99999H12.6L7.452 18H28.548ZM9.9 27C10.6161 27 11.3028 26.7155 11.8092 26.2092C12.3155 25.7028 12.6 25.0161 12.6 24.3C12.6 23.5839 12.3155 22.8971 11.8092 22.3908C11.3028 21.8845 10.6161 21.6 9.9 21.6C9.18392 21.6 8.49716 21.8845 7.99081 22.3908C7.48446 22.8971 7.2 23.5839 7.2 24.3C7.2 25.0161 7.48446 25.7028 7.99081 26.2092C8.49716 26.7155 9.18392 27 9.9 27ZM26.1 27C26.8161 27 27.5028 26.7155 28.0092 26.2092C28.5155 25.7028 28.8 25.0161 28.8 24.3C28.8 23.5839 28.5155 22.8971 28.0092 22.3908C27.5028 21.8845 26.8161 21.6 26.1 21.6C25.3839 21.6 24.6972 21.8845 24.1908 22.3908C23.6845 22.8971 23.4 23.5839 23.4 24.3C23.4 25.0161 23.6845 25.7028 24.1908 26.2092C24.6972 26.7155 25.3839 27 26.1 27Z" fill="#1C3352"/>
</svg>
