<svg width="17" height="16" viewBox="0 0 17 16" fill="none" xmlns="http://www.w3.org/2000/svg">
<path d="M14.8957 3.99282C14.7637 3.99593 14.6382 4.05117 14.5468 4.14646L8.40028 10.2929L2.25379 4.14646C2.20719 4.09847 2.15143 4.06031 2.08981 4.03425C2.02819 4.0082 1.96197 3.99477 1.89507 3.99477C1.79556 3.99479 1.69833 4.0245 1.6158 4.0801C1.53327 4.1357 1.46921 4.21466 1.43181 4.30687C1.39441 4.39908 1.38537 4.50035 1.40585 4.59773C1.42632 4.6951 1.47539 4.78416 1.54676 4.85349L8.04676 11.3535C8.14053 11.4472 8.26769 11.4999 8.40028 11.4999C8.53286 11.4999 8.66002 11.4472 8.75379 11.3535L15.2538 4.85349C15.3265 4.78371 15.3764 4.69358 15.397 4.59492C15.4176 4.49627 15.4079 4.3937 15.3692 4.30065C15.3305 4.2076 15.2646 4.12842 15.1801 4.07349C15.0956 4.01855 14.9965 3.99043 14.8957 3.99282Z" fill="white"/>
</svg>
