<svg width="18" height="18" viewBox="0 0 18 18" fill="none" xmlns="http://www.w3.org/2000/svg">
<g opacity="0.6" clip-path="url(#clip0_487_1474)">
<path d="M4.41779 13.778C4.52484 13.8818 4.66869 13.9388 4.81774 13.9366C4.9668 13.9344 5.10888 13.873 5.21277 13.7661L13.003 5.97587L13.003 12.0426C13.0015 12.1174 13.0149 12.1918 13.0425 12.2613C13.0701 12.3309 13.1113 12.3943 13.1637 12.4477C13.216 12.5012 13.2786 12.5436 13.3475 12.5726C13.4165 12.6016 13.4906 12.6166 13.5655 12.6166C13.6403 12.6166 13.7144 12.6016 13.7834 12.5726C13.8524 12.5436 13.9149 12.5012 13.9673 12.4477C14.0197 12.3943 14.0608 12.3309 14.0884 12.2613C14.116 12.1918 14.1294 12.1174 14.1279 12.0426L14.1279 4.61794C14.1279 4.46878 14.0686 4.32574 13.9631 4.22027C13.8577 4.1148 13.7146 4.05553 13.5655 4.0555L6.14084 4.0555C6.06602 4.05398 5.99165 4.0674 5.92208 4.09498C5.8525 4.12256 5.78914 4.16375 5.73568 4.21613C5.68223 4.26851 5.63976 4.33102 5.61077 4.40002C5.58178 4.46901 5.56685 4.5431 5.56685 4.61794C5.56685 4.69278 5.58178 4.76686 5.61077 4.83586C5.63976 4.90485 5.68223 4.96737 5.73568 5.01975C5.78914 5.07213 5.8525 5.11331 5.92208 5.14089C5.99165 5.16848 6.06602 5.1819 6.14084 5.18038L12.2075 5.18038L4.41727 12.9706C4.36327 13.0231 4.32036 13.0859 4.29107 13.1553C4.26178 13.2246 4.24671 13.2992 4.24676 13.3745C4.2468 13.4497 4.26197 13.5243 4.29135 13.5936C4.32073 13.6629 4.36372 13.7256 4.41779 13.778Z" fill="#0F1F35"/>
</g>
<defs>
<clipPath id="clip0_487_1474">
<rect width="18" height="18" fill="white"/>
</clipPath>
</defs>
</svg>
