<svg width="20" height="20" viewBox="0 0 20 20" fill="none" xmlns="http://www.w3.org/2000/svg">
<path d="M15.6249 3.33334C17.1132 3.33334 18.3333 4.55336 18.3333 6.04167V13.9583C18.3333 15.4466 17.1132 16.6667 15.6249 16.6667H4.37492C2.88661 16.6667 1.66659 15.4466 1.66659 13.9583V6.04167C1.66659 4.55336 2.88661 3.33334 4.37492 3.33334H15.6249ZM15.6249 4.58334H4.37492C3.56239 4.58334 2.91659 5.22914 2.91659 6.04167V6.50228L9.99992 10.3312L17.0833 6.50228V6.04167C17.0833 5.22914 16.4374 4.58334 15.6249 4.58334ZM17.0833 7.92318L10.297 11.5918C10.2057 11.6411 10.1036 11.6669 9.99992 11.6669C9.89621 11.6669 9.79413 11.6411 9.70288 11.5918L2.91659 7.92318V13.9583C2.91659 14.7709 3.56239 15.4167 4.37492 15.4167H15.6249C16.4374 15.4167 17.0833 14.7709 17.0833 13.9583V7.92318Z" fill="white"/>
</svg>
