<svg width="20" height="20" viewBox="0 0 20 20" fill="none" xmlns="http://www.w3.org/2000/svg">
<path d="M18.0002 17.9996V12.1396C18.0002 9.25957 17.3802 7.05957 14.0202 7.05957C12.4002 7.05957 11.3202 7.93957 10.8802 8.77957H10.8402V7.31957H7.66016V17.9996H10.9802V12.6996C10.9802 11.2996 11.2402 9.95957 12.9602 9.95957C14.6602 9.95957 14.6802 11.5396 14.6802 12.7796V17.9796H18.0002V17.9996Z" fill="white"/>
<path d="M2.25977 7.32031H5.57977V18.0003H2.25977V7.32031Z" fill="white"/>
<path d="M3.92 2C2.86 2 2 2.86 2 3.92C2 4.98 2.86 5.86 3.92 5.86C4.98 5.86 5.84 4.98 5.84 3.92C5.84 2.86 4.98 2 3.92 2Z" fill="white"/>
</svg>
