<svg width="53" height="61" viewBox="0 0 53 61" fill="none" xmlns="http://www.w3.org/2000/svg">
<path fill-rule="evenodd" clip-rule="evenodd" d="M20.9423 8.43522C21.1562 8.49479 21.395 8.46997 21.6538 8.37068L21.2308 5.95814C21.3901 5.35252 21.6339 4.88093 21.9573 4.53344C22.2956 4.17106 22.7186 3.94768 23.2211 3.8484C23.8828 3.79875 24.0819 4.28524 24.7486 4.71215C26.7786 6.00281 28.4902 6.43965 30.9979 6.4744L30.4805 8.55932C30.6447 8.62882 30.8437 8.64867 31.0427 8.61393C31.4457 8.57918 31.6895 8.61393 31.7493 8.74299C31.8438 8.93163 31.7592 9.32379 31.4756 9.95919L30.1073 12.2079C29.5998 13.0419 29.0823 13.8808 28.4305 14.4864C27.8086 15.0672 27.0423 15.4544 25.9925 15.4544C25.0272 15.4544 24.2908 15.0772 23.6888 14.5311C23.0569 13.9553 22.5494 13.171 22.0618 12.3966L20.8428 10.4655L20.8378 10.4556C20.4696 9.90459 20.2755 9.433 20.2656 9.07062C20.2606 8.95148 20.2805 8.84724 20.3203 8.76285C20.3551 8.68839 20.4099 8.62882 20.4795 8.57918C20.594 8.50472 20.7432 8.45507 20.9423 8.43522ZM22.0618 17.5245L24.2411 23.9133L25.3357 20.1207L24.7983 19.5349C24.5545 19.1825 24.5048 18.8747 24.6391 18.6116C24.9277 18.0358 25.5298 18.145 26.092 18.145C26.6791 18.145 27.4056 18.0358 27.5946 18.7705C27.6543 19.0187 27.5797 19.2718 27.4056 19.5399L26.8682 20.1257L27.9628 23.9182L29.9332 17.5294C31.3562 18.8052 35.5655 19.0633 37.1328 19.9321C37.6304 20.21 38.0732 20.5575 38.4364 21.0341C38.9838 21.7539 39.3171 22.6921 39.4067 23.8884L39.7351 29.0561C39.6555 29.9 39.1778 30.3864 38.2324 30.4609H26.097H13.7625C12.8171 30.3914 12.3395 29.9049 12.2599 29.0561L12.5882 23.8884C12.6778 22.6971 13.0161 21.7539 13.5635 21.0341C13.9217 20.5575 14.3695 20.21 14.8671 19.9321C16.4294 19.0584 20.6388 18.8002 22.0618 17.5245ZM28.8584 31.7466V37.6042H50.3381V40.3792V41.8783V48.7288H46.0541V41.8783H28.8584V48.0437H24.2908V41.8783H6.94593V48.7288H2.66194V41.8783V40.3792V37.6042H24.2908V31.7466H28.8584ZM48.1986 51.4143C50.8505 51.4143 53 53.5588 53 56.2097C53 58.8605 50.8505 61 48.1986 61C45.5466 61 43.3921 58.8555 43.3921 56.2097C43.3921 53.5638 45.5466 51.4143 48.1986 51.4143ZM4.80145 51.4143C7.45344 51.4143 9.60787 53.5588 9.60787 56.2097C9.60787 58.8605 7.45841 61 4.80145 61C2.14448 61 0 58.8555 0 56.2047C0 53.5539 2.14946 51.4143 4.80145 51.4143ZM26.5746 51.4143C29.2266 51.4143 31.3761 53.5588 31.3761 56.2097C31.3761 58.8605 29.2266 61 26.5746 61C23.9226 61 21.7732 58.8555 21.7732 56.2097C21.7732 53.5638 23.9226 51.4143 26.5746 51.4143ZM31.8388 7.8991L31.9134 4.79157C31.8239 3.51084 31.396 2.5478 30.7243 1.81808C29.0674 0.0260439 25.9676 -0.435617 23.6291 0.408279C23.236 0.552238 22.8628 0.730945 22.5245 0.944401C21.5592 1.55995 20.7781 2.44852 20.4696 3.56048C20.3949 3.82358 20.3452 4.08667 20.3203 4.3448C20.2706 5.43194 20.3004 6.73253 20.375 7.77003C20.2606 7.81471 20.1511 7.86435 20.0566 7.92888C19.8626 8.05795 19.7183 8.23169 19.6237 8.43025C19.5342 8.62385 19.4944 8.84227 19.4993 9.08055C19.5143 9.58689 19.7481 10.1975 20.1959 10.8676L21.4149 12.7987C21.9274 13.6128 22.4698 14.4467 23.1763 15.0921C23.9127 15.7622 24.8083 16.2189 26.0024 16.2239C27.2812 16.2288 28.2116 15.7573 28.9729 15.0474C29.6993 14.3673 30.2466 13.4837 30.784 12.6051L32.1722 10.3265C32.1821 10.3116 32.1871 10.2968 32.1971 10.2819C32.5802 9.41314 32.6598 8.80256 32.4608 8.3955C32.3264 8.1473 32.1224 7.98349 31.8388 7.8991Z" fill="white"/>
</svg>
