<svg width="35" height="357" viewBox="0 0 35 357" fill="none" xmlns="http://www.w3.org/2000/svg">
<path opacity="0.1" d="M1.024 324.672H34V326.832H4.816L34 339.408V341.376L5.008 353.952H34V356.112H1.024L1.024 353.664L31.264 340.368L1.024 327.168L1.024 324.672ZM0.159998 300.364H34L34 302.524H0.159998L0.159998 300.364ZM32.224 276.027V263.403H34V278.187H0.159998L0.159998 276.027H32.224ZM0.159998 205.122L34 214.002V216.498L3.472 225.762L34 234.978V237.474L0.159998 246.402L0.159998 243.954L30.88 236.226L0.159998 226.962L0.159998 224.514L30.88 215.298L0.159998 207.57L0.159998 205.122ZM25.216 166.064V182.096L34 185.408L34 187.808L1.072 175.28L1.072 172.88L34 160.448V162.8L25.216 166.064ZM23.44 166.736L3.712 174.08L23.44 181.472V166.736ZM0.159998 138.942H20.944C24.88 138.942 27.76 138.078 29.584 136.35C31.408 134.622 32.32 132.27 32.32 129.294C32.32 126.35 31.408 124.046 29.584 122.382C27.76 120.686 24.88 119.838 20.944 119.838H0.159998L0.159998 117.63H20.944C25.456 117.63 28.816 118.686 31.024 120.798C33.232 122.878 34.336 125.71 34.336 129.294C34.336 132.91 33.232 135.79 31.024 137.934C28.816 140.046 25.456 141.102 20.944 141.102H0.159998L0.159998 138.942ZM17.056 91.8229L34 75.2629V77.9989L17.968 93.5989H34V95.7589H0.159998L0.159998 93.5989H16.192L0.159998 77.9989L0.159998 75.2629L17.056 91.8229ZM1.984 53.8864H16.192L16.192 40.2064H17.92L17.92 53.8864H32.176V38.7664H34V56.0464H0.159998L0.159998 38.7664H1.984L1.984 53.8864ZM1.984 16.002H16.192V2.32199H17.92V16.002H32.176V0.881987H34V18.162H0.159998L0.159998 0.881987H1.984L1.984 16.002Z" fill="#0F1F35"/>
</svg>
