<svg width="18" height="18" viewBox="0 0 18 18" fill="none" xmlns="http://www.w3.org/2000/svg">
<path opacity="0.9" d="M9.02009 4.35938C11.5513 4.35938 13.6406 6.44866 13.6406 8.97991C13.6406 11.5513 11.5513 13.6004 9.02009 13.6004C6.44866 13.6004 4.39955 11.5513 4.39955 8.97991C4.39955 6.44866 6.44866 4.35938 9.02009 4.35938ZM9.02009 11.9933C10.6674 11.9933 11.9933 10.6674 11.9933 8.97991C11.9933 7.33259 10.6674 6.0067 9.02009 6.0067C7.33259 6.0067 6.0067 7.33259 6.0067 8.97991C6.0067 10.6674 7.37277 11.9933 9.02009 11.9933ZM14.8862 4.19866C14.8862 3.59598 14.404 3.11384 13.8013 3.11384C13.1987 3.11384 12.7165 3.59598 12.7165 4.19866C12.7165 4.80134 13.1987 5.28348 13.8013 5.28348C14.404 5.28348 14.8862 4.80134 14.8862 4.19866ZM17.9397 5.28348C18.0201 6.77009 18.0201 11.2299 17.9397 12.7165C17.8594 14.1629 17.5379 15.4085 16.4933 16.4933C15.4487 17.5379 14.1629 17.8594 12.7165 17.9397C11.2299 18.0201 6.77009 18.0201 5.28348 17.9397C3.83705 17.8594 2.59152 17.5379 1.5067 16.4933C0.462054 15.4085 0.140625 14.1629 0.0602679 12.7165C-0.0200893 11.2299 -0.0200893 6.77009 0.0602679 5.28348C0.140625 3.83705 0.462054 2.55134 1.5067 1.5067C2.59152 0.462054 3.83705 0.140625 5.28348 0.0602679C6.77009 -0.0200893 11.2299 -0.0200893 12.7165 0.0602679C14.1629 0.140625 15.4487 0.462054 16.4933 1.5067C17.5379 2.55134 17.8594 3.83705 17.9397 5.28348ZM16.0112 14.2835C16.4933 13.1183 16.3728 10.3058 16.3728 8.97991C16.3728 7.6942 16.4933 4.8817 16.0112 3.67634C15.6897 2.91295 15.0871 2.27009 14.3237 1.98884C13.1183 1.5067 10.3058 1.62723 9.02009 1.62723C7.6942 1.62723 4.8817 1.5067 3.71652 1.98884C2.91295 2.31027 2.31027 2.91295 1.98884 3.67634C1.5067 4.8817 1.62723 7.6942 1.62723 8.97991C1.62723 10.3058 1.5067 13.1183 1.98884 14.2835C2.31027 15.0871 2.91295 15.6897 3.71652 16.0112C4.8817 16.4933 7.6942 16.3728 9.02009 16.3728C10.3058 16.3728 13.1183 16.4933 14.3237 16.0112C15.0871 15.6897 15.7299 15.0871 16.0112 14.2835Z" fill="#0F1F35"/>
</svg>
