<svg width="16" height="17" viewBox="0 0 16 17" fill="none" xmlns="http://www.w3.org/2000/svg">
<path d="M15.9963 16.4996V10.6396C15.9963 7.75957 15.3763 5.55957 12.0163 5.55957C10.3962 5.55957 9.31625 6.43957 8.87625 7.27957H8.83625V5.81957H5.65625V16.4996H8.97625V11.1996C8.97625 9.79957 9.23625 8.45957 10.9563 8.45957C12.6563 8.45957 12.6763 10.0396 12.6763 11.2796V16.4796H15.9963V16.4996Z" fill="black"/>
<path d="M0.257812 5.82031H3.57781V16.5003H0.257812V5.82031Z" fill="black"/>
<path d="M1.92 0.5C0.86 0.5 0 1.36 0 2.42C0 3.48 0.86 4.36 1.92 4.36C2.98 4.36 3.84 3.48 3.84 2.42C3.84 1.36 2.98 0.5 1.92 0.5Z" fill="black"/>
</svg>
