<svg width="166" height="166" viewBox="0 0 166 166" fill="none" xmlns="http://www.w3.org/2000/svg">
<circle opacity="0.1" cx="83" cy="83" r="83" fill="white"/>
<circle opacity="0.2" cx="83" cy="83" r="67" fill="white"/>
<circle cx="83" cy="83" r="54" fill="white"/>
<path d="M89.3 71.6973H87.5C86.0088 71.6973 84.8 72.9564 84.8 74.457V91.332C84.8 92.8854 86.0088 94.1445 87.5 94.1445L89.3 94.25C90.7912 94.25 92 92.9908 92 91.4375V74.5625C92 73.0092 90.7906 71.6973 89.3 71.6973ZM78.5 71.6973H76.7C75.2088 71.6973 74 72.9564 74 74.5098V91.3848C74 92.9902 75.2088 94.25 76.7 94.25H78.5C79.9912 94.25 81.2 92.9908 81.2 91.4375V74.5625C81.2 73.0092 79.9906 71.6973 78.5 71.6973Z" fill="#1C3352"/>
</svg>
