<svg width="20" height="20" viewBox="0 0 20 20" fill="none" xmlns="http://www.w3.org/2000/svg">
<g clip-path="url(#clip0_144_2438)">
<path d="M9.99989 0C4.48599 0 0 4.48599 0 10C0 12.5511 0.960802 14.9803 2.70525 16.8401C3.00861 17.1635 3.51652 17.1798 3.84 16.8764C4.16337 16.5731 4.17964 16.0651 3.87628 15.7417C2.41207 14.1806 1.60562 12.1415 1.60562 10C1.60562 5.37133 5.37133 1.60562 9.99989 1.60562C14.6286 1.60562 18.3944 5.37133 18.3944 10C18.3944 14.6287 14.6286 18.3944 9.99989 18.3944C9.17932 18.3944 8.3749 18.2776 7.60003 18.0466L8.42114 14.8371C8.92916 14.961 9.45334 15.0241 9.98844 15.0241C13.3611 15.0241 16.105 12.4921 16.105 9.38002C16.105 6.2678 13.3611 3.73574 9.98844 3.73574C6.61579 3.73574 3.87189 6.2678 3.87189 9.38002C3.87189 10.5015 4.22727 11.5852 4.8997 12.5139C5.15971 12.873 5.66173 12.9534 6.02074 12.6933C6.37987 12.4333 6.46015 11.9313 6.20015 11.5722C5.72734 10.9192 5.47751 10.1612 5.47751 9.38002C5.47751 7.15313 7.50112 5.34135 9.98844 5.34135C12.4758 5.34135 14.4994 7.15313 14.4994 9.38002C14.4994 11.6068 12.4759 13.4185 9.98844 13.4185C9.58875 13.4185 9.19751 13.3727 8.81912 13.2818L9.94295 8.88891C10.0528 8.45936 9.79362 8.02209 9.36418 7.91216C8.93462 7.80223 8.49736 8.06138 8.38743 8.49093L5.86136 18.3647C5.76096 18.7571 5.96872 19.1629 6.34561 19.311C7.50979 19.7682 8.73938 20 9.99989 20C15.514 20 20 15.514 20 10C20 4.48599 15.514 0 9.99989 0Z" fill="white"/>
</g>
<defs>
<clipPath id="clip0_144_2438">
<rect width="20" height="20" fill="white"/>
</clipPath>
</defs>
</svg>
