<svg width="43" height="37" viewBox="0 0 43 37" fill="none" xmlns="http://www.w3.org/2000/svg">
<path d="M30.3184 13.4688H26.5391C25.8444 13.4688 25.2793 12.9037 25.2793 12.2091V10.9493H17.7207V12.2091C17.7207 12.9037 17.1556 13.4688 16.4609 13.4688H12.6816V15.9884H0V19.7677C0 21.41 1.05325 22.8103 2.51953 23.3303V24.8067C2.51953 26.449 3.57278 27.8493 5.03906 28.3694V29.8458C5.03906 31.9297 6.73446 33.6251 8.81836 33.6251H16.9216C18.1189 34.6576 19.5297 35.4721 21.1017 35.996L21.5 36.1287L21.8983 35.996C23.4702 35.472 24.8811 34.6575 26.0784 33.6251H34.1816C36.2655 33.6251 37.9609 31.9297 37.9609 29.8458V28.3694C39.4272 27.8493 40.4805 26.449 40.4805 24.8067V23.3303C41.9468 22.8103 43 21.41 43 19.7677V15.9884H30.3184V13.4688ZM7.55859 29.8458V28.586H10.0781V26.0665H6.29883C5.60419 26.0665 5.03906 25.5014 5.03906 24.8067V23.547H7.55859V21.0274H3.7793C3.08466 21.0274 2.51953 20.4623 2.51953 19.7677V18.5079H12.6816V24.3978C12.6816 26.8429 13.4136 29.1586 14.7027 31.1056H8.81836C8.12372 31.1056 7.55859 30.5404 7.55859 29.8458ZM15.2012 24.3978V15.9884H16.4609C18.1033 15.9884 19.5044 14.9353 20.0244 13.4688H20.2402V32.8784C17.1679 31.1839 15.2012 27.9639 15.2012 24.3978ZM22.7598 32.8784V13.4688H22.9756C23.4956 14.9353 24.8967 15.9884 26.5391 15.9884H27.7988V24.3978C27.7988 27.9639 25.8321 31.1839 22.7598 32.8784ZM40.4805 18.5079V19.7677C40.4805 20.4623 39.9153 21.0274 39.2207 21.0274H35.4414V23.547H37.9609V24.8067C37.9609 25.5014 37.3958 26.0665 36.7012 26.0665H32.9219V28.586H35.4414V29.8458C35.4414 30.5404 34.8763 31.1056 34.1816 31.1056H28.2973C29.5864 29.1586 30.3184 26.8429 30.3184 24.3978V18.5079H40.4805ZM10.1621 8.42978H12.6816V5.91025H15.2012V3.39072H12.6816V0.871185H10.1621V3.39072H7.64258V5.91025H10.1621V8.42978ZM20.2402 8.42978H22.7598V5.91025H25.2793V3.39072H22.7598V0.871185H20.2402V3.39072H17.7207V5.91025H20.2402V8.42978ZM30.3184 8.42978H32.8379V5.91025H35.3574V3.39072H32.8379V0.871185H30.3184V3.39072H27.7988V5.91025H30.3184V8.42978Z" fill="#1C3352"/>
</svg>
