<svg width="118" height="22" viewBox="0 0 118 22" fill="none" xmlns="http://www.w3.org/2000/svg">
<path d="M16.0196 12.8007C15.7881 13.0251 15.6817 13.3496 15.7344 13.6678L16.5291 18.066C16.5962 18.4388 16.4388 18.816 16.1269 19.0315C15.8211 19.255 15.4144 19.2818 15.0809 19.103L11.1217 17.038C10.984 16.9647 10.8312 16.9254 10.6747 16.9209H10.4325C10.3484 16.9334 10.2662 16.9602 10.1911 17.0013L6.23094 19.0762C6.03516 19.1745 5.81347 19.2094 5.59624 19.1745C5.06703 19.0744 4.71392 18.5702 4.80063 18.0383L5.59624 13.6401C5.64898 13.3192 5.5426 12.9929 5.31107 12.765L2.08306 9.63618C1.81309 9.37425 1.71922 8.98092 1.84259 8.62604C1.96238 8.27204 2.2681 8.01369 2.6373 7.95559L7.08018 7.31106C7.41809 7.27619 7.71488 7.07059 7.86685 6.76665L9.82458 2.75286C9.87107 2.66347 9.93096 2.58122 10.0034 2.5115L10.0838 2.44892C10.1258 2.40244 10.1741 2.364 10.2277 2.33271L10.3252 2.29695L10.4772 2.23438H10.8535C11.1896 2.26924 11.4855 2.47038 11.6402 2.77074L13.6238 6.76665C13.7669 7.05897 14.0449 7.26189 14.3658 7.31106L18.8087 7.95559C19.1841 8.00922 19.4979 8.26847 19.6222 8.62604C19.7393 8.98449 19.6382 9.37783 19.3629 9.63618L16.0196 12.8007Z" fill="#FAB349"/>
<path d="M40.1559 12.8007C39.9244 13.0251 39.818 13.3496 39.8708 13.6678L40.6655 18.066C40.7325 18.4388 40.5752 18.816 40.2632 19.0315C39.9575 19.255 39.5507 19.2818 39.2173 19.103L35.258 17.038C35.1204 16.9647 34.9675 16.9254 34.8111 16.9209H34.5688C34.4848 16.9334 34.4025 16.9602 34.3274 17.0013L30.3673 19.0762C30.1715 19.1745 29.9498 19.2094 29.7326 19.1745C29.2034 19.0744 28.8503 18.5702 28.937 18.0383L29.7326 13.6401C29.7853 13.3192 29.679 12.9929 29.4474 12.765L26.2194 9.63618C25.9494 9.37425 25.8556 8.98092 25.9789 8.62604C26.0987 8.27204 26.4045 8.01369 26.7737 7.95559L31.2165 7.31106C31.5544 7.27619 31.8512 7.07059 32.0032 6.76665L33.9609 2.75286C34.0074 2.66347 34.0673 2.58122 34.1397 2.5115L34.2202 2.44892C34.2622 2.40244 34.3105 2.364 34.3641 2.33271L34.4615 2.29695L34.6135 2.23438H34.9899C35.326 2.26924 35.6219 2.47038 35.7765 2.77074L37.7602 6.76665C37.9032 7.05897 38.1812 7.26189 38.5021 7.31106L42.945 7.95559C43.3205 8.00922 43.6343 8.26847 43.7585 8.62604C43.8756 8.98449 43.7746 9.37783 43.4993 9.63618L40.1559 12.8007Z" fill="#FAB349"/>
<path d="M64.2923 12.8007C64.0608 13.0251 63.9544 13.3496 64.0071 13.6678L64.8018 18.066C64.8689 18.4388 64.7115 18.816 64.3996 19.0315C64.0938 19.255 63.6871 19.2818 63.3537 19.103L59.3944 17.038C59.2567 16.9647 59.1039 16.9254 58.9474 16.9209H58.7052C58.6211 16.9334 58.5389 16.9602 58.4638 17.0013L54.5036 19.0762C54.3079 19.1745 54.0862 19.2094 53.8689 19.1745C53.3397 19.0744 52.9866 18.5702 53.0733 18.0383L53.8689 13.6401C53.9217 13.3192 53.8153 12.9929 53.5838 12.765L50.3558 9.63618C50.0858 9.37425 49.9919 8.98092 50.1153 8.62604C50.2351 8.27204 50.5408 8.01369 50.91 7.95559L55.3529 7.31106C55.6908 7.27619 55.9876 7.07059 56.1396 6.76665L58.0973 2.75286C58.1438 2.66347 58.2037 2.58122 58.2761 2.5115L58.3565 2.44892C58.3985 2.40244 58.4468 2.364 58.5005 2.33271L58.5979 2.29695L58.7499 2.23438H59.1262C59.4623 2.26924 59.7582 2.47038 59.9129 2.77074L61.8965 6.76665C62.0396 7.05897 62.3176 7.26189 62.6385 7.31106L67.0814 7.95559C67.4568 8.00922 67.7706 8.26847 67.8949 8.62604C68.012 8.98449 67.911 9.37783 67.6356 9.63618L64.2923 12.8007Z" fill="#FAB349"/>
<path d="M88.4286 12.8007C88.1971 13.0251 88.0907 13.3496 88.1435 13.6678L88.9382 18.066C89.0052 18.4388 88.8479 18.816 88.5359 19.0315C88.2302 19.255 87.8234 19.2818 87.49 19.103L83.5307 17.038C83.3931 16.9647 83.2402 16.9254 83.0838 16.9209H82.8415C82.7575 16.9334 82.6752 16.9602 82.6002 17.0013L78.64 19.0762C78.4442 19.1745 78.2225 19.2094 78.0053 19.1745C77.4761 19.0744 77.123 18.5702 77.2097 18.0383L78.0053 13.6401C78.058 13.3192 77.9517 12.9929 77.7201 12.765L74.4921 9.63618C74.2221 9.37425 74.1283 8.98092 74.2516 8.62604C74.3714 8.27204 74.6772 8.01369 75.0464 7.95559L79.4892 7.31106C79.8271 7.27619 80.1239 7.07059 80.2759 6.76665L82.2336 2.75286C82.2801 2.66347 82.34 2.58122 82.4124 2.5115L82.4929 2.44892C82.5349 2.40244 82.5832 2.364 82.6368 2.33271L82.7342 2.29695L82.8862 2.23438H83.2626C83.5987 2.26924 83.8946 2.47038 84.0492 2.77074L86.0329 6.76665C86.1759 7.05897 86.4539 7.26189 86.7748 7.31106L91.2177 7.95559C91.5932 8.00922 91.907 8.26847 92.0312 8.62604C92.1483 8.98449 92.0473 9.37783 91.772 9.63618L88.4286 12.8007Z" fill="#FAB349"/>
<path d="M112.565 12.8007C112.333 13.0251 112.227 13.3496 112.28 13.6678L113.075 18.066C113.142 18.4388 112.984 18.816 112.672 19.0315C112.367 19.255 111.96 19.2818 111.626 19.103L107.667 17.038C107.529 16.9647 107.377 16.9254 107.22 16.9209H106.978C106.894 16.9334 106.812 16.9602 106.737 17.0013L102.776 19.0762C102.581 19.1745 102.359 19.2094 102.142 19.1745C101.612 19.0744 101.259 18.5702 101.346 18.0383L102.142 13.6401C102.194 13.3192 102.088 12.9929 101.856 12.765L98.6285 9.63618C98.3585 9.37425 98.2646 8.98092 98.388 8.62604C98.5078 8.27204 98.8135 8.01369 99.1827 7.95559L103.626 7.31106C103.963 7.27619 104.26 7.07059 104.412 6.76665L106.37 2.75286C106.416 2.66347 106.476 2.58122 106.549 2.5115L106.629 2.44892C106.671 2.40244 106.72 2.364 106.773 2.33271L106.871 2.29695L107.023 2.23438H107.399C107.735 2.26924 108.031 2.47038 108.186 2.77074L110.169 6.76665C110.312 7.05897 110.59 7.26189 110.911 7.31106L115.354 7.95559C115.73 8.00922 116.043 8.26847 116.168 8.62604C116.285 8.98449 116.184 9.37783 115.908 9.63618L112.565 12.8007Z" fill="#FAB349"/>
</svg>
