<svg width="40" height="40" viewBox="0 0 40 40" fill="none" xmlns="http://www.w3.org/2000/svg">
<path d="M10.8334 5.8335C8.07587 5.8335 5.83337 8.076 5.83337 10.8335C5.83337 13.591 8.07587 15.8335 10.8334 15.8335C13.5909 15.8335 15.8334 13.591 15.8334 10.8335C15.8334 8.076 13.5909 5.8335 10.8334 5.8335ZM29.1667 5.8335C28.9944 5.8335 28.8235 5.84244 28.6556 5.85954C26.1372 6.116 24.1667 8.24834 24.1667 10.8335C24.1667 12.0399 24.5955 13.1476 25.3093 14.0122C26.227 15.1238 27.6156 15.8335 29.1667 15.8335C31.9242 15.8335 34.1667 13.591 34.1667 10.8335C34.1667 8.076 31.9242 5.8335 29.1667 5.8335ZM20 14.1668C17.4149 14.1668 15.2825 16.1373 15.0261 18.6558C15.009 18.8237 15 18.9945 15 19.1668C15 21.752 16.9705 23.8843 19.489 24.1408C19.6569 24.1579 19.8277 24.1668 20 24.1668C22.7575 24.1668 25 21.9243 25 19.1668C25 16.4093 22.7575 14.1668 20 14.1668ZM20 16.6668C21.3784 16.6668 22.5 17.7885 22.5 19.1668C22.5 20.5452 21.3784 21.6668 20 21.6668C18.6217 21.6668 17.5 20.5452 17.5 19.1668C17.5 18.9945 17.5171 18.8265 17.5505 18.6639C17.784 17.5258 18.794 16.6668 20 16.6668ZM6.25004 17.5002C4.64171 17.5002 3.33337 18.8085 3.33337 20.4168V22.5002C3.33337 25.3035 6.62754 27.5002 10.8334 27.5002C10.8942 27.5002 10.9524 27.4945 11.0124 27.4937C11.5607 25.5762 13.3259 24.1668 15.4167 24.1668H15.6006C14.2131 22.9452 13.3334 21.161 13.3334 19.1668C13.3334 18.5902 13.414 18.0335 13.5515 17.5002H6.25004ZM26.4486 17.5002C26.5861 18.0335 26.6667 18.5902 26.6667 19.1668C26.6667 21.161 25.787 22.9452 24.3995 24.1668H24.5834C26.6742 24.1668 28.4393 25.5762 28.9877 27.4937C29.0477 27.4945 29.1059 27.5002 29.1667 27.5002C33.3725 27.5002 36.6667 25.3035 36.6667 22.5002V20.4168C36.6667 18.8085 35.3584 17.5002 33.75 17.5002H26.4486ZM15.4167 25.8335C13.8084 25.8335 12.5 27.1418 12.5 28.7502V30.8335C12.5 33.6368 15.7942 35.8335 20 35.8335C24.2059 35.8335 27.5 33.6368 27.5 30.8335V28.7502C27.5 27.1418 26.1917 25.8335 24.5834 25.8335H15.4167ZM15.4167 28.3335H24.5834C24.8125 28.3335 25 28.521 25 28.7502V30.8335C25 32.0135 22.8617 33.3335 20 33.3335C17.1384 33.3335 15 32.0135 15 30.8335V28.7502C15 28.6929 15.0114 28.6388 15.0326 28.589C15.0961 28.4396 15.2448 28.3335 15.4167 28.3335Z" fill="#1C3352"/>
</svg>
