<svg width="66" height="59" viewBox="0 0 66 59" fill="none" xmlns="http://www.w3.org/2000/svg">
<g clip-path="url(#clip0_485_18252)">
<path d="M47.4912 37.3517C46.8925 39.4607 46.0374 41.4864 44.9453 43.3823H50.2573C50.487 43.5237 50.7299 43.642 50.9824 43.7355C51.5772 43.9584 52.2181 44.0255 52.8454 43.9305C53.4727 43.8355 54.0661 43.5815 54.5703 43.1922L56.0312 42.1871C55.3845 43.6353 54.621 45.0272 53.7485 46.3487C51.8071 49.2633 49.3266 51.7705 46.4438 53.7321C44.9864 54.7229 43.4398 55.5724 41.8247 56.2693C40.1706 56.988 38.4483 57.5341 36.6846 57.8992C33.0901 58.6164 29.3918 58.6164 25.7973 57.8992C24.0644 57.5453 22.3711 57.0156 20.7431 56.3182L20.6572 56.2856C19.0426 55.5875 17.4962 54.738 16.0381 53.7484C14.5987 52.7705 13.2568 51.6533 12.0312 50.4126C11.4941 49.8693 10.9892 49.326 10.5005 48.7284C11.2762 48.054 12.0904 47.4263 12.939 46.8486C13.3436 47.323 13.7625 47.7794 14.1958 48.2177C15.2768 49.3165 16.4624 50.3047 17.7353 51.1678C19.0405 52.048 20.4232 52.8045 21.8657 53.4279L21.9355 53.4605C23.3714 54.0736 24.865 54.5378 26.3935 54.8459C26.7749 54.922 27.167 54.9926 27.5591 55.0469C24.3028 52.3173 21.4137 49.1684 18.9653 45.6805H14.6684C16.2798 44.6482 18.0737 43.6431 19.8515 42.6978C19.9858 42.9314 20.1255 43.1596 20.2705 43.3878H30.0781V37.8244L30.8301 37.5038C31.1859 38.1945 31.7504 38.7522 32.4414 39.0957V43.3823H42.2007C44.5317 39.6825 45.7886 35.9554 45.9604 32.2067L47.5073 37.3517H47.4912ZM27.5806 28.496C27.9458 27.317 28.9609 26.3717 30.4326 25.4155L25.4053 19.4718C25.0669 19.173 25.1528 18.9285 25.4697 18.7166L27.1401 17.994C27.2747 17.951 27.4168 17.9379 27.5568 17.9558C27.6968 17.9736 27.8313 18.0219 27.9512 18.0972L35.2505 21.8188L43.8442 16.7933L31.9634 1.85265C31.6572 1.51037 31.7002 1.24415 32.1782 1.0703L34.8638 -0.0162964L52.7173 11.6592L59.1626 8.49174C61.6172 7.40515 63.7334 7.23129 65.0708 8.04081C65.3834 8.17078 65.6457 8.40008 65.8182 8.69409C65.9906 8.98811 66.0639 9.33089 66.0268 9.6707C66.0537 11.3006 64.7056 13.0609 62.3262 14.5604L55.6284 17.2008L55.0913 38.6774L52.6958 40.3073C52.2822 40.6061 52.0405 40.4974 51.9331 40.0465L46.3901 21.7319L37.4526 26.0783L36.3784 34.2278C36.371 34.3741 36.3321 34.517 36.2644 34.6465C36.1966 34.776 36.1017 34.889 35.9863 34.9775L34.4663 35.9663C34.1172 36.1076 33.8701 36.0424 33.8218 35.5914L31.8022 28.0396C30.1909 28.735 28.8374 29.0501 27.6665 28.6807C27.5591 28.6481 27.5483 28.5992 27.5806 28.496ZM25.3247 24.7309C18.2241 28.534 8.72801 34.7113 5.2368 38.3134C-6.18214 50.2061 2.7285 59.4748 16.0703 55.4164C11.8916 54.7916 8.62059 53.9386 6.80516 52.7325C-0.945327 47.582 23.9927 36.4661 29.8257 34.0322L29.3691 32.3208C28.4515 32.405 27.5265 32.3072 26.646 32.0328L26.3183 31.8861C25.8847 31.7238 25.4903 31.4697 25.1615 31.1409C24.8326 30.812 24.577 30.416 24.4116 29.9792L24.3418 29.789C24.0537 29.0474 24.0403 28.2254 24.3042 27.4746C24.5749 26.5874 25.0147 25.7624 25.5986 25.046L25.3354 24.7309H25.3247ZM4.29686 34.2875C4.1732 33.1855 4.11223 32.0771 4.11424 30.968C4.11256 29.1182 4.29248 27.2728 4.65135 25.4589C4.99691 23.7055 5.51884 21.9925 6.20897 20.3465L6.2412 20.265C6.93535 18.631 7.7768 17.0651 8.75487 15.5872C9.71854 14.1321 10.8213 12.7764 12.0473 11.5396C13.2729 10.299 14.6149 9.18178 16.0542 8.2038C17.5123 7.21419 19.0588 6.36475 20.6733 5.6666C22.3277 4.94871 24.05 4.40261 25.8135 4.0367C26.8551 3.8271 27.9078 3.67836 28.9663 3.5912C29.0866 3.78113 29.2194 3.96264 29.3638 4.1345L32.436 8.00821V16.2229H37.9253L35.1377 17.8528L30.0781 15.2775V7.99191C27.2261 10.4651 24.6277 13.2227 22.3223 16.2229H23.0366C22.4645 16.7208 22.0576 17.3846 21.8711 18.1244C21.8299 18.2668 21.7993 18.4121 21.7798 18.559V18.6079H20.668C19.3774 20.5953 18.3415 22.7404 17.5849 24.9917C16.6128 25.5839 15.6352 26.1869 14.6684 26.8063C15.2977 23.9085 16.386 21.1327 17.8911 18.5862H10.4951C9.95952 19.5193 9.48061 20.4846 9.06102 21.4766L9.02879 21.5472C8.41844 23.0055 7.95944 24.524 7.65916 26.0783C7.41874 27.3001 7.2715 28.5389 7.21873 29.7836H10.2051C8.15846 31.1803 6.18631 32.6855 4.29686 34.2929V34.2875ZM45.9282 32.1687H40.1221L40.4389 29.7781H45.2192L45.9336 32.1687H45.9282ZM43.5058 45.675C41.0551 49.1627 38.1662 52.313 34.9121 55.0469C35.3042 54.9872 35.6909 54.9165 36.0776 54.8405C37.6287 54.524 39.144 54.0489 40.6001 53.4225C42.0432 52.8003 43.4259 52.0436 44.7305 51.1623C46.0034 50.2992 47.189 49.3111 48.27 48.2122C49.0695 47.4222 49.8109 46.5742 50.4883 45.675H43.5058ZM32.4306 54.0581C35.4703 51.5932 38.2172 48.78 40.6162 45.675H32.4306V54.0581ZM30.0781 45.675H21.8872C24.2893 48.7791 27.0378 51.5921 30.0781 54.0581V45.675ZM19.4219 16.2229C21.8418 12.7905 24.6462 9.6529 27.7793 6.87272C27.3174 6.93791 26.8608 7.01398 26.4097 7.10634C24.8553 7.41686 23.3377 7.89215 21.8818 8.52434C20.4393 9.1477 19.0566 9.90427 17.7514 10.7845C16.4785 11.6476 15.2929 12.6357 14.2119 13.7346C13.4391 14.5102 12.7212 15.3399 12.0635 16.2174L19.4219 16.2229Z" fill="white"/>
</g>
<defs>
<clipPath id="clip0_485_18252">
<rect width="66" height="58.4262" fill="white"/>
</clipPath>
</defs>
</svg>
