<svg width="31" height="30" viewBox="0 0 31 30" fill="none" xmlns="http://www.w3.org/2000/svg">
<path d="M21.715 7.81332C21.428 7.65364 21.1124 7.55209 20.7861 7.51448C20.4599 7.47688 20.1294 7.50395 19.8136 7.59416C19.4978 7.68436 19.203 7.83593 18.9458 8.04019C18.6886 8.24445 18.4743 8.4974 18.315 8.78457L13.6737 17.1371L11.0175 14.4808C10.7868 14.242 10.511 14.0516 10.206 13.9206C9.90096 13.7895 9.57291 13.7206 9.24096 13.7177C8.90901 13.7148 8.57981 13.7781 8.27257 13.9038C7.96533 14.0295 7.6862 14.2151 7.45147 14.4498C7.21674 14.6846 7.03111 14.9637 6.9054 15.2709C6.7797 15.5782 6.71645 15.9074 6.71933 16.2393C6.72222 16.5713 6.79118 16.8993 6.92221 17.2043C7.05323 17.5093 7.24368 17.7852 7.48246 18.0158L12.4825 23.0158C12.955 23.4896 13.5925 23.7496 14.25 23.7496L14.5962 23.7246C14.9794 23.671 15.3449 23.5292 15.664 23.3103C15.9831 23.0914 16.247 22.8015 16.435 22.4633L22.685 11.2133C22.8445 10.9264 22.946 10.6108 22.9836 10.2847C23.0212 9.95852 22.9942 9.62814 22.9042 9.31242C22.8141 8.9967 22.6627 8.70181 22.4587 8.44459C22.2546 8.18738 22.0019 7.97287 21.715 7.81332Z" fill="#F5F7FB"/>
</svg>
